# xmcd CD database file
#
# Track frame offsets:
#	150
#	20615
#	34088
#	44850
#	55958
#	63078
#	74245
#	84025
#	103648
#
# Disc length: 1525 seconds
#
# Revision: 4
# Processed by: cddbd v1.5PL3 Copyright (c) Steve Scherf et al.
# Submitted via: CDex 1.51
#
DISCID=7b05f309
DTITLE=Pizzicato Five - フリーダムのピチカート・ファイヴ
DYEAR=1996
DGENRE=JPop
TTITLE0=エアプレイン'96
TTITLE1=ドミノ
TTITLE2=雪漫々
TTITLE3=チキン・カレー
TTITLE4=ミニ・クーパー
TTITLE5=Holger and Marcus
TTITLE6=コーンフレイクス
TTITLE7=子供たちの子供たちの子供たちへ
TTITLE8=パッシング・バイ
EXTD=YEAR: 1996
EXTT0=
EXTT1=
EXTT2=
EXTT3=
EXTT4=
EXTT5=
EXTT6=
EXTT7=
EXTT8=
PLAYORDER=
